<?xml version="1.0" encoding="UTF-8" standalone="no"?>
<!-- Created with Inkscape (http://www.inkscape.org/) -->

<svg
   width="116.1298mm"
   height="116.11736mm"
   viewBox="0 0 116.1298 116.11736"
   version="1.1"
   id="svg5"
   xml:space="preserve"
   xmlns="http://www.w3.org/2000/svg"
   xmlns:svg="http://www.w3.org/2000/svg"><defs
     id="defs2" /><g
     id="layer1"
     transform="translate(-63.84791,-63.631984)"><path
       style="fill:#ffffff;fill-opacity:1;stroke-width:0.226786"
       d="m 88.915488,179.42014 c -13.073609,-1.83032 -23.247046,-12.24603 -24.815316,-25.40629 -0.336349,-2.8225 -0.336349,-61.811437 0,-64.633927 1.598921,-13.41747 12.078204,-23.896756 25.495674,-25.495677 2.822498,-0.336349 61.811434,-0.336349 64.633934,0 13.41751,1.598927 23.89674,12.078157 25.49567,25.495677 0.33635,2.82249 0.33635,61.811427 0,64.633927 -1.59834,13.41257 -12.0831,23.89733 -25.49567,25.49567 -3.10949,0.37055 -62.610706,0.28912 -65.314292,-0.0894 z m 67.695542,-10.17475 c 6.27849,-2.09576 10.75452,-6.5718 12.85029,-12.85029 l 0.64346,-1.92768 V 121.69688 88.926343 l -0.64346,-1.92767 c -2.09577,-6.2785 -6.5718,-10.75453 -12.85029,-12.8503 l -1.92768,-0.64345 H 121.91281 89.142274 l -1.927679,0.64345 c -6.880498,2.29672 -11.820205,7.74709 -13.285573,14.65903 -0.465145,2.19403 -0.465145,63.584927 0,65.778957 1.379797,6.50832 6.250566,12.17934 12.278915,14.29631 3.212315,1.12807 1.92251,1.09083 36.271843,1.04714 l 32.20357,-0.041 z m -38.66697,-18.85382 c -6.15929,-0.86231 -11.48805,-3.43572 -15.96765,-7.71123 -5.20478,-4.96766 -8.14627,-11.01472 -8.895845,-18.28787 -0.848376,-8.23186 2.032065,-16.53761 7.848795,-22.63199 10.22068,-10.708537 26.49998,-12.079447 38.37026,-3.231217 4.24873,3.167047 7.86633,7.961657 9.71705,12.878567 2.56386,6.81156 2.45879,14.59375 -0.28773,21.31046 -2.96155,7.24258 -9.21903,13.33171 -16.52708,16.08245 -4.55718,1.71532 -9.46066,2.26243 -14.2578,1.59083 z m 9.63839,-10.20126 c 6.19382,-1.98233 10.78345,-6.56599 12.8405,-12.82378 0.5902,-1.79548 0.63366,-2.18432 0.63366,-5.66965 0,-3.48532 -0.0435,-3.87417 -0.63366,-5.66964 -2.05439,-6.24972 -6.59077,-10.7861 -12.8405,-12.84049 -1.79547,-0.5902 -2.18431,-0.63366 -5.66964,-0.63366 -3.48533,0 -3.87417,0.0435 -5.66964,0.63366 -6.24972,2.05439 -10.78611,6.59077 -12.84049,12.84049 -0.5902,1.79547 -0.63366,2.18432 -0.63366,5.66964 0,3.48533 0.0435,3.87417 0.63366,5.66965 2.26084,6.87779 7.45089,11.61745 14.54138,13.2795 0.93704,0.21965 2.34928,0.2944 4.53572,0.24009 2.69279,-0.0669 3.46776,-0.17256 5.10267,-0.69581 z M 150.6012,96.875793 c -4.71239,-1.96462 -5.9078,-8.11149 -2.2825,-11.73679 1.14282,-1.14282 2.24733,-1.70375 3.84953,-1.955 4.99084,-0.78264 9.15216,3.42265 8.25595,8.34319 -0.41979,2.30481 -1.80433,4.13205 -3.95624,5.22122 -1.64572,0.83297 -4.04913,0.88515 -5.86674,0.12738 z"
       id="path248" /></g></svg>
