<?xml version="1.0" encoding="UTF-8" standalone="no"?>
<!-- Created with Inkscape (http://www.inkscape.org/) -->

<svg
   width="91.874092mm"
   height="91.72995mm"
   viewBox="0 0 91.874092 91.72995"
   version="1.1"
   id="svg1638"
   xmlns="http://www.w3.org/2000/svg"
   xmlns:svg="http://www.w3.org/2000/svg">
  <defs
     id="defs1635" />
  <g
     id="layer1"
     transform="translate(227.15739,-142.90621)">
    <path
       style="fill:#ffffff;fill-opacity:1;stroke:none;stroke-width:0.179336"
       d="m -188.38628,207.01714 c 2.68645,0 6.8994,0.79356 9.32546,-0.47955 3.15398,-1.65491 3.119,-6.4256 0,-8.06975 -2.86973,-1.5127 -7.76614,-0.59683 -10.93948,-0.59683 l -0.53729,-10.04281 0.53729,-8.24945 h 17.5749 c 0.001,1.79891 0.33662,3.58438 0.35796,5.38008 0.0239,2.00138 -0.34236,4.2863 0.69654,6.09724 1.75085,3.05211 6.57284,2.8552 8.05774,-0.3585 1.44096,-3.11883 0.0613,-7.80864 0.0339,-11.11882 h 12.91218 c 1.07154,0 3.74023,-0.48008 4.56159,0.28747 0.72004,0.67305 0.74317,2.5516 0.89202,3.47858 0.33123,2.06021 0.54894,4.18803 0.45748,6.27675 -0.0644,1.46859 -0.56437,3.02505 -0.22955,4.4834 0.55576,2.42193 2.82651,3.89195 5.25795,3.53273 4.59799,-0.67913 4.14122,-6.70429 4.12455,-10.16817 -0.0488,-10.11041 -4.16328,-20.19859 -10.4838,-27.97638 -3.3708,-4.14801 -7.54017,-7.58658 -12.11234,-10.32981 -21.82356,-13.09383 -51.481,-4.86808 -63.60888,17.50324 -3.37072,6.21775 -5.29843,13.20234 -5.6077,20.26495 -0.83379,19.04152 10.93411,37.06442 28.50735,44.29398 6.07841,2.50066 12.48015,3.40936 19.00959,3.40936 2.94774,0 6.19444,0.16553 7.33394,-3.22804 0.22686,-0.67574 0.2577,-1.45047 0.1397,-2.15203 -0.53227,-3.1651 -3.33797,-3.76606 -6.03895,-3.76606 -0.9442,0 -2.41314,0.28389 -3.16008,-0.4157 -1.17483,-1.1004 -1.93862,-3.16743 -2.61794,-4.60571 -1.90886,-4.04097 -4.08581,-8.94778 -4.44412,-13.45018 m 7.17343,-54.87678 c 3.28974,5.3742 6.32391,11.9834 7.17343,18.29226 h -14.34687 c 0.36548,-4.59225 2.58315,-9.72782 4.61843,-13.80886 0.75267,-1.50906 1.4415,-3.20199 2.555,-4.4834 m 11.47749,1.61403 c 6.21184,2.75354 11.546,5.5725 16.14919,10.76015 1.52651,1.72037 3.29261,3.74345 4.11576,5.91808 h -10.40147 c -1.21626,0 -3.32292,0.40781 -4.43337,-0.10814 -0.89686,-0.41677 -1.01701,-2.95223 -1.23849,-3.83724 -0.7473,-2.98882 -1.68522,-5.92674 -2.82866,-8.78747 -0.43041,-1.07694 -1.56417,-2.79638 -1.36296,-3.94538 m -22.95498,0.17933 -4.05765,11.83617 -1.24872,4.47838 -4.01909,0.18435 h -10.93949 c 0.74586,-2.03726 2.39302,-3.92835 3.78954,-5.55941 3.88747,-4.54018 10.29603,-10.02689 16.47541,-10.93949 m -6.45609,25.64503 c -0.48582,6.1566 -0.48582,12.13566 0,18.29226 h -12.73285 c -1.12234,0 -3.82132,0.4964 -4.74092,-0.18436 -0.72908,-0.53963 -0.75759,-2.56523 -0.8921,-3.40236 -0.56767,-3.53274 -0.57992,-7.04091 -0.0823,-10.58082 0.12668,-0.90134 0.18948,-3.57936 1.107,-4.01658 1.21328,-0.578 3.62904,-0.10814 4.96703,-0.10814 h 12.37417 m 31.92177,21.26439 c -3.53005,0.68542 -0.99405,4.9025 -0.1336,6.71201 2.87583,6.04774 5.53969,12.20327 8.32764,18.29225 0.85991,1.87801 1.6524,5.60945 4.35929,5.16039 1.33965,-0.22237 1.83873,-1.57547 2.37585,-2.64969 1.07601,-2.15184 1.97843,-4.91685 3.50458,-6.78158 1.51449,-1.85075 5.09529,-2.87619 7.21127,-3.93427 1.14219,-0.57118 2.53383,-1.09933 2.66995,-2.55499 0.25269,-2.70188 -3.80497,-3.54673 -5.71866,-4.44395 -5.40679,-2.53474 -10.85789,-5.00258 -16.31956,-7.41734 -1.63698,-0.72379 -4.44215,-2.73899 -6.27676,-2.38283 m -25.46568,22.6729 c -6.14333,-0.90727 -12.3765,-6.32051 -16.31059,-10.76016 -1.47196,-1.66118 -3.16114,-3.64284 -3.95436,-5.73874 h 10.93949 l 3.99237,0.18435 1.23544,4.47838 z"
       id="path318" />
  </g>
</svg>
